<svg width="706" height="258" viewBox="0 0 706 258" fill="none" xmlns="http://www.w3.org/2000/svg">
<path fill-rule="evenodd" clip-rule="evenodd" d="M277.996 127.912C277.411 57.1681 219.882 0 149 0C77.7553 0 20 57.7553 20 129C20 200.245 77.7553 258 149 258C213.923 258 267.645 210.039 276.667 147.615C276.467 148.06 276.254 148.499 276.028 148.93C274.108 152.65 271.498 155.59 268.198 157.75C264.958 159.85 261.298 160.9 257.218 160.9C254.818 160.9 252.568 160.51 250.468 159.73C248.368 158.95 246.508 157.96 244.888 156.76C244.079 156.138 243.359 155.516 242.728 154.894V172.51C242.728 174.07 242.218 175.36 241.198 176.38C240.178 177.46 238.888 178 237.328 178C235.768 178 234.478 177.49 233.458 176.47C232.438 175.45 231.928 174.13 231.928 172.51V117.34C231.928 115.78 232.438 114.49 233.458 113.47C234.478 112.39 235.768 111.85 237.328 111.85C238.888 111.85 240.178 112.39 241.198 113.47C242.218 114.49 242.728 115.78 242.728 117.34V117.798C243.537 116.781 244.587 115.788 245.878 114.82C247.318 113.68 248.968 112.75 250.828 112.03C252.748 111.31 254.758 110.95 256.858 110.95C261.058 110.95 264.808 112.03 268.108 114.19C271.468 116.29 274.108 119.2 276.028 122.92C276.858 124.479 277.514 126.143 277.996 127.912ZM136.95 113.74C134.73 111.88 131.46 110.95 127.14 110.95C125.16 110.95 123.33 111.28 121.65 111.94C119.97 112.54 118.44 113.35 117.06 114.37C115.68 115.39 114.51 116.5 113.55 117.7C113.226 118.085 112.926 118.462 112.65 118.833V98.89C112.65 97.33 112.14 96.04 111.12 95.02C110.1 93.94 108.81 93.4 107.25 93.4C105.69 93.4 104.4 93.94 103.38 95.02C102.36 96.04 101.85 97.33 101.85 98.89V154.51C101.85 156.07 102.36 157.39 103.38 158.47C104.4 159.49 105.69 160 107.25 160C108.81 160 110.1 159.49 111.12 158.47C112.14 157.39 112.65 156.07 112.65 154.51V131.47C112.65 129.49 113.04 127.72 113.82 126.16C114.66 124.54 115.89 123.25 117.51 122.29C119.13 121.33 121.08 120.85 123.36 120.85C125.7 120.85 127.5 121.33 128.76 122.29C130.02 123.25 130.89 124.54 131.37 126.16C131.85 127.72 132.09 129.49 132.09 131.47V154.51C132.09 156.07 132.6 157.39 133.62 158.47C134.64 159.49 135.93 160 137.49 160C139.05 160 140.34 159.49 141.36 158.47C142.38 157.39 142.89 156.07 142.89 154.51V131.47C142.89 127.69 142.47 124.27 141.63 121.21C140.79 118.09 139.23 115.6 136.95 113.74ZM163.944 157.75C167.724 159.85 172.164 160.9 177.264 160.9C180.264 160.9 183.174 160.42 185.994 159.46C188.814 158.44 191.004 157.27 192.564 155.95C194.244 154.63 195.084 153.16 195.084 151.54C195.084 150.34 194.634 149.29 193.734 148.39C192.894 147.49 191.814 147.04 190.494 147.04C189.534 147.04 188.514 147.31 187.434 147.85C186.774 148.21 186.024 148.66 185.184 149.2C184.404 149.68 183.354 150.1 182.034 150.46C180.714 150.82 178.944 151 176.724 151C174.324 151 172.044 150.43 169.884 149.29C167.784 148.09 166.044 146.38 164.664 144.16C163.891 142.825 163.345 141.325 163.024 139.66H192.744C194.184 139.66 195.444 139.21 196.524 138.31C197.604 137.41 198.174 136.24 198.234 134.8C198.234 131.56 197.604 128.5 196.344 125.62C195.144 122.74 193.494 120.22 191.394 118.06C189.294 115.84 186.864 114.1 184.104 112.84C181.404 111.58 178.524 110.95 175.464 110.95C171.504 110.95 167.754 111.97 164.214 114.01C160.674 116.05 157.794 118.99 155.574 122.83C153.414 126.61 152.334 131.2 152.334 136.6C152.334 141.22 153.324 145.36 155.304 149.02C157.344 152.68 160.224 155.59 163.944 157.75ZM186.714 130.66H163.128C163.274 129.914 163.456 129.224 163.674 128.59C164.334 126.67 165.234 125.14 166.374 124C167.514 122.86 168.864 122.05 170.424 121.57C171.984 121.09 173.664 120.85 175.464 120.85C177.324 120.85 179.064 121.27 180.684 122.11C182.364 122.89 183.744 123.97 184.824 125.35C185.964 126.73 186.594 128.29 186.714 130.03V130.66ZM217.75 158.47C218.83 157.39 219.37 156.07 219.37 154.51V98.89C219.37 97.33 218.86 96.04 217.84 95.02C216.88 93.94 215.62 93.4 214.06 93.4C212.5 93.4 211.18 93.94 210.1 95.02C209.08 96.04 208.57 97.33 208.57 98.89V154.51C208.57 156.07 209.08 157.39 210.1 158.47C211.12 159.49 212.38 160 213.88 160C215.44 160 216.73 159.49 217.75 158.47ZM248.578 122.83C250.558 121.51 252.868 120.85 255.508 120.85C258.148 120.85 260.428 121.51 262.348 122.83C264.328 124.15 265.858 125.95 266.938 128.23C268.078 130.45 268.648 133 268.648 135.88C268.648 138.7 268.078 141.28 266.938 143.62C265.858 145.9 264.328 147.7 262.348 149.02C260.428 150.34 258.148 151 255.508 151C252.868 151 250.558 150.34 248.578 149.02C246.598 147.7 245.038 145.9 243.898 143.62C242.818 141.28 242.278 138.7 242.278 135.88C242.278 133 242.818 130.45 243.898 128.23C245.038 125.95 246.598 124.15 248.578 122.83Z" fill="#78E0E1"/>
<circle cx="44.5" cy="58.5" r="44.5" fill="#59BDC4"/>
<path d="M301.02 157.51C301.02 159.07 300.51 160.39 299.49 161.47C298.47 162.49 297.18 163 295.62 163C294.06 163 292.77 162.49 291.75 161.47C290.73 160.39 290.22 159.07 290.22 157.51V120.34C290.22 118.78 290.73 117.49 291.75 116.47C292.77 115.39 294.06 114.85 295.62 114.85C297.18 114.85 298.47 115.39 299.49 116.47C300.51 117.49 301.02 118.78 301.02 120.34V157.51ZM295.53 109C293.49 109 292.05 108.67 291.21 108.01C290.37 107.35 289.95 106.18 289.95 104.5V102.79C289.95 101.05 290.4 99.88 291.3 99.28C292.26 98.62 293.7 98.29 295.62 98.29C297.72 98.29 299.19 98.62 300.03 99.28C300.87 99.94 301.29 101.11 301.29 102.79V104.5C301.29 106.24 300.84 107.44 299.94 108.1C299.04 108.7 297.57 109 295.53 109ZM337.86 113.95C342.3 113.95 345.66 114.88 347.94 116.74C350.28 118.6 351.87 121.09 352.71 124.21C353.61 127.27 354.06 130.69 354.06 134.47V157.51C354.06 159.07 353.55 160.39 352.53 161.47C351.51 162.49 350.22 163 348.66 163C347.1 163 345.81 162.49 344.79 161.47C343.77 160.39 343.26 159.07 343.26 157.51V134.47C343.26 132.49 342.99 130.72 342.45 129.16C341.97 127.54 341.07 126.25 339.75 125.29C338.43 124.33 336.54 123.85 334.08 123.85C331.68 123.85 329.64 124.33 327.96 125.29C326.34 126.25 325.08 127.54 324.18 129.16C323.34 130.72 322.92 132.49 322.92 134.47V157.51C322.92 159.07 322.41 160.39 321.39 161.47C320.37 162.49 319.08 163 317.52 163C315.96 163 314.67 162.49 313.65 161.47C312.63 160.39 312.12 159.07 312.12 157.51V120.34C312.12 118.78 312.63 117.49 313.65 116.47C314.67 115.39 315.96 114.85 317.52 114.85C319.08 114.85 320.37 115.39 321.39 116.47C322.41 117.49 322.92 118.78 322.92 120.34V124.21L321.57 123.94C322.11 122.92 322.89 121.84 323.91 120.7C324.93 119.5 326.13 118.39 327.51 117.37C328.89 116.35 330.45 115.54 332.19 114.94C333.93 114.28 335.82 113.95 337.86 113.95ZM385.713 113.95C388.233 113.95 390.543 114.34 392.643 115.12C394.743 115.9 396.543 116.89 398.043 118.09C399.603 119.29 400.803 120.52 401.643 121.78C402.543 122.98 402.993 124 402.993 124.84L400.653 126.01V119.44C400.653 117.88 401.163 116.59 402.183 115.57C403.203 114.49 404.493 113.95 406.053 113.95C407.613 113.95 408.903 114.46 409.923 115.48C410.943 116.5 411.453 117.82 411.453 119.44V159.49C411.453 164.71 410.313 168.88 408.033 172C405.813 175.18 402.873 177.46 399.213 178.84C395.553 180.28 391.623 181 387.423 181C386.223 181 384.663 180.85 382.743 180.55C380.823 180.25 378.993 179.89 377.253 179.47C375.513 179.05 374.193 178.66 373.293 178.3C371.493 177.52 370.233 176.53 369.513 175.33C368.853 174.19 368.733 172.96 369.153 171.64C369.693 169.9 370.563 168.7 371.763 168.04C372.963 167.44 374.223 167.38 375.543 167.86C376.143 168.04 377.133 168.4 378.513 168.94C379.893 169.48 381.393 169.96 383.013 170.38C384.693 170.86 386.163 171.1 387.423 171.1C391.923 171.1 395.253 170.2 397.413 168.4C399.573 166.6 400.653 164.11 400.653 160.93V153.1L401.733 153.91C401.733 154.69 401.313 155.65 400.473 156.79C399.693 157.87 398.583 158.95 397.143 160.03C395.763 161.11 394.113 162.04 392.193 162.82C390.273 163.54 388.233 163.9 386.073 163.9C381.813 163.9 377.973 162.85 374.553 160.75C371.133 158.59 368.433 155.65 366.453 151.93C364.473 148.15 363.483 143.83 363.483 138.97C363.483 134.05 364.473 129.73 366.453 126.01C368.433 122.23 371.103 119.29 374.463 117.19C377.823 115.03 381.573 113.95 385.713 113.95ZM387.423 123.85C384.723 123.85 382.353 124.51 380.313 125.83C378.273 127.15 376.683 128.95 375.543 131.23C374.403 133.51 373.833 136.09 373.833 138.97C373.833 141.79 374.403 144.34 375.543 146.62C376.683 148.9 378.273 150.7 380.313 152.02C382.353 153.34 384.723 154 387.423 154C390.183 154 392.583 153.34 394.623 152.02C396.663 150.7 398.253 148.9 399.393 146.62C400.533 144.34 401.103 141.79 401.103 138.97C401.103 136.09 400.533 133.51 399.393 131.23C398.253 128.95 396.663 127.15 394.623 125.83C392.583 124.51 390.183 123.85 387.423 123.85Z" fill="#59BDC4"/>
<path d="M473.64 113.95C477.96 113.95 481.23 114.88 483.45 116.74C485.73 118.6 487.29 121.09 488.13 124.21C488.97 127.27 489.39 130.69 489.39 134.47V157.51C489.39 159.07 488.88 160.39 487.86 161.47C486.84 162.49 485.55 163 483.99 163C482.43 163 481.14 162.49 480.12 161.47C479.1 160.39 478.59 159.07 478.59 157.51V134.47C478.59 132.49 478.35 130.72 477.87 129.16C477.39 127.54 476.52 126.25 475.26 125.29C474 124.33 472.2 123.85 469.86 123.85C467.58 123.85 465.63 124.33 464.01 125.29C462.39 126.25 461.16 127.54 460.32 129.16C459.54 130.72 459.15 132.49 459.15 134.47V157.51C459.15 159.07 458.64 160.39 457.62 161.47C456.6 162.49 455.31 163 453.75 163C452.19 163 450.9 162.49 449.88 161.47C448.86 160.39 448.35 159.07 448.35 157.51V101.89C448.35 100.33 448.86 99.04 449.88 98.02C450.9 96.94 452.19 96.4 453.75 96.4C455.31 96.4 456.6 96.94 457.62 98.02C458.64 99.04 459.15 100.33 459.15 101.89V124.21L457.8 123.94C458.34 122.92 459.09 121.84 460.05 120.7C461.01 119.5 462.18 118.39 463.56 117.37C464.94 116.35 466.47 115.54 468.15 114.94C469.83 114.28 471.66 113.95 473.64 113.95ZM540.504 113.95C542.064 113.95 543.354 114.46 544.374 115.48C545.394 116.5 545.904 117.82 545.904 119.44V157.51C545.904 159.07 545.394 160.39 544.374 161.47C543.354 162.49 542.064 163 540.504 163C538.944 163 537.654 162.49 536.634 161.47C535.614 160.39 535.104 159.07 535.104 157.51V153.1L537.084 153.91C537.084 154.69 536.664 155.65 535.824 156.79C534.984 157.87 533.844 158.95 532.404 160.03C530.964 161.11 529.254 162.04 527.274 162.82C525.354 163.54 523.254 163.9 520.974 163.9C516.834 163.9 513.084 162.85 509.724 160.75C506.364 158.59 503.694 155.65 501.714 151.93C499.794 148.15 498.834 143.83 498.834 138.97C498.834 134.05 499.794 129.73 501.714 126.01C503.694 122.23 506.334 119.29 509.634 117.19C512.934 115.03 516.594 113.95 520.614 113.95C523.194 113.95 525.564 114.34 527.724 115.12C529.884 115.9 531.744 116.89 533.304 118.09C534.924 119.29 536.154 120.52 536.994 121.78C537.894 122.98 538.344 124 538.344 124.84L535.104 126.01V119.44C535.104 117.88 535.614 116.59 536.634 115.57C537.654 114.49 538.944 113.95 540.504 113.95ZM522.324 154C524.964 154 527.274 153.34 529.254 152.02C531.234 150.7 532.764 148.9 533.844 146.62C534.984 144.34 535.554 141.79 535.554 138.97C535.554 136.09 534.984 133.51 533.844 131.23C532.764 128.95 531.234 127.15 529.254 125.83C527.274 124.51 524.964 123.85 522.324 123.85C519.744 123.85 517.464 124.51 515.484 125.83C513.504 127.15 511.944 128.95 510.804 131.23C509.724 133.51 509.184 136.09 509.184 138.97C509.184 141.79 509.724 144.34 510.804 146.62C511.944 148.9 513.504 150.7 515.484 152.02C517.464 153.34 519.744 154 522.324 154ZM583.338 113.95C587.778 113.95 591.138 114.88 593.418 116.74C595.758 118.6 597.348 121.09 598.188 124.21C599.088 127.27 599.538 130.69 599.538 134.47V157.51C599.538 159.07 599.028 160.39 598.008 161.47C596.988 162.49 595.698 163 594.138 163C592.578 163 591.288 162.49 590.268 161.47C589.248 160.39 588.738 159.07 588.738 157.51V134.47C588.738 132.49 588.468 130.72 587.928 129.16C587.448 127.54 586.548 126.25 585.228 125.29C583.908 124.33 582.018 123.85 579.558 123.85C577.158 123.85 575.118 124.33 573.438 125.29C571.818 126.25 570.558 127.54 569.658 129.16C568.818 130.72 568.398 132.49 568.398 134.47V157.51C568.398 159.07 567.888 160.39 566.868 161.47C565.848 162.49 564.558 163 562.998 163C561.438 163 560.148 162.49 559.128 161.47C558.108 160.39 557.598 159.07 557.598 157.51V120.34C557.598 118.78 558.108 117.49 559.128 116.47C560.148 115.39 561.438 114.85 562.998 114.85C564.558 114.85 565.848 115.39 566.868 116.47C567.888 117.49 568.398 118.78 568.398 120.34V124.21L567.048 123.94C567.588 122.92 568.368 121.84 569.388 120.7C570.408 119.5 571.608 118.39 572.988 117.37C574.368 116.35 575.928 115.54 577.668 114.94C579.408 114.28 581.298 113.95 583.338 113.95ZM650.631 96.4C652.191 96.4 653.481 96.91 654.501 97.93C655.521 98.95 656.031 100.27 656.031 101.89V157.51C656.031 159.07 655.521 160.39 654.501 161.47C653.481 162.49 652.191 163 650.631 163C649.071 163 647.781 162.49 646.761 161.47C645.741 160.39 645.231 159.07 645.231 157.51V153.1L647.211 153.91C647.211 154.69 646.791 155.65 645.951 156.79C645.111 157.87 643.971 158.95 642.531 160.03C641.091 161.11 639.381 162.04 637.401 162.82C635.481 163.54 633.381 163.9 631.101 163.9C626.961 163.9 623.211 162.85 619.851 160.75C616.491 158.59 613.821 155.65 611.841 151.93C609.921 148.15 608.961 143.83 608.961 138.97C608.961 134.05 609.921 129.73 611.841 126.01C613.821 122.23 616.461 119.29 619.761 117.19C623.061 115.03 626.721 113.95 630.741 113.95C633.321 113.95 635.691 114.34 637.851 115.12C640.011 115.9 641.871 116.89 643.431 118.09C645.051 119.29 646.281 120.52 647.121 121.78C648.021 122.98 648.471 124 648.471 124.84L645.231 126.01V101.89C645.231 100.33 645.741 99.04 646.761 98.02C647.781 96.94 649.071 96.4 650.631 96.4ZM632.451 154C635.091 154 637.401 153.34 639.381 152.02C641.361 150.7 642.891 148.9 643.971 146.62C645.111 144.34 645.681 141.79 645.681 138.97C645.681 136.09 645.111 133.51 643.971 131.23C642.891 128.95 641.361 127.15 639.381 125.83C637.401 124.51 635.091 123.85 632.451 123.85C629.871 123.85 627.591 124.51 625.611 125.83C623.631 127.15 622.071 128.95 620.931 131.23C619.851 133.51 619.311 136.09 619.311 138.97C619.311 141.79 619.851 144.34 620.931 146.62C622.071 148.9 623.631 150.7 625.611 152.02C627.591 153.34 629.871 154 632.451 154ZM664.935 155.53C664.335 154.69 664.065 153.61 664.125 152.29C664.185 150.97 664.965 149.83 666.465 148.87C667.425 148.27 668.445 148.03 669.525 148.15C670.605 148.21 671.655 148.75 672.675 149.77C674.415 151.51 676.245 152.86 678.165 153.82C680.085 154.78 682.485 155.26 685.365 155.26C686.265 155.2 687.255 155.08 688.335 154.9C689.415 154.66 690.345 154.18 691.125 153.46C691.965 152.68 692.385 151.51 692.385 149.95C692.385 148.63 691.935 147.58 691.035 146.8C690.135 146.02 688.935 145.36 687.435 144.82C685.995 144.28 684.375 143.77 682.575 143.29C680.715 142.75 678.795 142.15 676.815 141.49C674.895 140.83 673.125 139.99 671.505 138.97C669.885 137.89 668.565 136.48 667.545 134.74C666.525 133 666.015 130.81 666.015 128.17C666.015 125.17 666.855 122.62 668.535 120.52C670.215 118.42 672.375 116.8 675.015 115.66C677.715 114.52 680.535 113.95 683.475 113.95C685.335 113.95 687.285 114.19 689.325 114.67C691.365 115.09 693.315 115.81 695.175 116.83C697.035 117.79 698.595 119.08 699.855 120.7C700.515 121.6 700.905 122.68 701.025 123.94C701.145 125.2 700.575 126.34 699.315 127.36C698.415 128.08 697.365 128.41 696.165 128.35C694.965 128.23 693.975 127.81 693.195 127.09C692.175 125.77 690.795 124.72 689.055 123.94C687.375 123.16 685.425 122.77 683.205 122.77C682.305 122.77 681.315 122.89 680.235 123.13C679.215 123.31 678.315 123.76 677.535 124.48C676.755 125.14 676.365 126.22 676.365 127.72C676.365 129.1 676.815 130.21 677.715 131.05C678.615 131.83 679.815 132.49 681.315 133.03C682.875 133.51 684.525 133.99 686.265 134.47C688.065 134.95 689.895 135.52 691.755 136.18C693.615 136.84 695.325 137.71 696.885 138.79C698.445 139.87 699.705 141.28 700.665 143.02C701.625 144.7 702.105 146.86 702.105 149.5C702.105 152.56 701.205 155.17 699.405 157.33C697.605 159.49 695.355 161.14 692.655 162.28C689.955 163.36 687.195 163.9 684.375 163.9C680.835 163.9 677.295 163.3 673.755 162.1C670.215 160.84 667.275 158.65 664.935 155.53Z" fill="#78E0E1"/>
</svg>
